<?xml version="1.0" encoding="UTF-8"?>
<svg xmlns="http://www.w3.org/2000/svg" version="1.1" viewBox="0 0 62 18">
  <defs>
    <style>
      .cls-1 {
        fill-rule: evenodd;
      }

      .cls-1, .cls-2, .cls-3, .cls-4 {
        stroke-width: 0px;
      }

      .cls-1, .cls-4 {
        fill: #fff;
      }

      .cls-2 {
        fill: #fbfeff;
      }

      .cls-3 {
        fill: #231f20;
      }
    </style>
  </defs>
  <g id="Layer_2" data-name="Layer 2">
    <rect class="cls-3" x="-.3" width="62.5" height="18"/>
  </g>
  <g id="Layer_1" data-name="Layer 1">
    <path class="cls-1" d="M36.5,15.8h-3.3c0,0-.1,0-.1-.1v-.6c0,0,0-.1.1-.1h3.3v.8h0ZM36.5,12.6h-4.1l.3.9h3.7c0,0,.1,0,.1.1v.5h-3.3c-.6,0-1.1.5-1.1,1.1v.3c0,.6.5,1.1,1.1,1.1h4.4v-3c0-.6-.5-1.1-1.1-1.1h0Z"/>
    <path class="cls-1" d="M45.1,14.3c0,0,0,0-.1,0h-2.6v-2.1h2.6c0,0,.1,0,.1,0v1.9h0ZM45.1,11.5h-2.7v-.9h-1.2v4.6h3.9c.6,0,1.1-.5,1.1-1v-1.7c0-.6-.5-1-1.1-1h0Z"/>
    <path class="cls-1" d="M43.6,1.3h-7.9v5.7h1.6V2.7c0,0,0-.2.2-.2h2.1c0,0,.2,0,.2.2v4.3h1.6V2.7c0,0,0-.2.2-.2h2.1c0,0,.2,0,.2.2v4.3h1.6V2.8c0-.9-.7-1.6-1.6-1.6h0Z"/>
    <path class="cls-1" d="M60.5,2.4v4.3c0,0,0,.2-.2.2h-3.8c0,0-.2,0-.2-.2V2.4h-1.5v4.1c0,.9.7,1.6,1.6,1.6h3.9c.9,0,1.6-.7,1.6-1.6V2.4h-1.5,0Z"/>
    <path class="cls-1" d="M28.3,8.8c0,0,0-.2.2-.2h4.5v1.1h-4.5c0,0-.2,0-.2-.2,0,0,0-.8,0-.8ZM28.4,11h6v-4.1c0-.9-.7-1.6-1.6-1.6h-5.6l.5,1.2h5.1c0,0,.2,0,.2.2v.7h-4.6c-.9,0-1.6.7-1.6,1.6v.4c0,.9.7,1.6,1.6,1.6h0Z"/>
    <path class="cls-1" d="M52.2,6.8c0,0,0,.2-.2.2h-3.5v-3.2h3.5c0,0,.2,0,.2.2v2.9h0ZM52.2,2.5h-3.7v-1.4h-1.6v7.1h5.3c.9,0,1.6-.7,1.6-1.6v-2.5c0-.9-.7-1.6-1.6-1.6h0Z"/>
    <path class="cls-1" d="M7.4,17.3l6.5.5.6-8.7-6.3-3-.8,11.3Z"/>
    <path class="cls-1" d="M7.5-.1l.5,5.6,6.6,2-.7-8.1L7.5-.1Z"/>
    <path class="cls-1" d="M0,.2v11.3l6.4-2.5V.2H0Z"/>
    <path class="cls-1" d="M0,17.3l6.4.5.6-8.1L.4,11.6,0,17.3Z"/>
    <path class="cls-1" d="M17.3,1.7v1.5l1.6-.6v-1.5l-1.6.6Z"/>
    <path class="cls-1" d="M23.2,7.8l-3.6-.2v-1.9c.1,0,3.7.2,3.7.2.2,0,.4,0,.6.2.2.2.3.5.3.8,0,.5-.5.9-1,.9ZM19.8,2.7l3.4.2c0,0,.2,0,.3,0,.3.1.5.5.5.8,0,0,0,.1,0,.2,0,.3-.3.5-.5.6-.1,0-.2,0-.4,0l-3.4-.2v-1.7c.1,0,0,0,0,0ZM23,1.6l-3.1-.2v1.3c0,0-1.7.5-1.7.5l-.3,5.5,5.7.3h0s0,0,0,0c1.1,0,2.1-.8,2.2-2s-.2-1.2-.7-1.7c0,0,0,0,0,0,.3-.4.5-.8.5-1.3,0-.9-.5-1.8-1.3-2.1-.4-.2-.8-.3-1.2-.3h-.1s0,0,0,0Z"/>
    <path class="cls-1" d="M23.2,11.8v5.1h4.4l-.4-1h-2.8v-4.2h-1.2Z"/>
    <path class="cls-4" d="M18.8,16.6c-.3,0-.6,0-.9,0-.3,0-.5-.1-.8-.3-.2-.1-.5-.3-.7-.4l.5-.8c.2.2.5.4.8.5s.6.2,1,.2.7,0,1-.2c.2-.1.4-.4.4-.6h0c0-.2,0-.4-.2-.5s-.3-.2-.5-.2c-.2,0-.4-.1-.6-.1-.2,0-.5,0-.7-.1s-.5-.1-.7-.3-.4-.3-.5-.5c-.1-.2-.2-.5-.2-.9h0c0-.6.2-1.1.6-1.4s1-.5,1.7-.5.7,0,1,.2c.3.1.6.3,1,.5l-.5.8c-.2-.2-.5-.3-.7-.4-.2,0-.5-.1-.7-.1-.4,0-.7,0-.9.2-.2.1-.3.4-.3.6h0c0,.2,0,.4.2.5.1.1.3.2.5.2.2,0,.4.1.7.1.2,0,.5.1.7.2.2,0,.4.2.6.3s.3.3.5.5.2.5.2.8h0c0,.6-.2,1.1-.6,1.4-.4.3-1,.5-1.7.5h0Z"/>
    <path class="cls-2" d="M49.2,16.9c-.4,0-.8,0-1.1-.2-.3-.1-.6-.3-.9-.5l.5-.6c.2.2.5.3.7.4s.5.1.7.1c.3,0,.6,0,.8-.2s.3-.3.3-.5,0-.3-.2-.4c-.1,0-.3-.1-.5-.1-.2,0-.4,0-.6,0-.2,0-.4,0-.5,0s-.3,0-.5-.2-.3-.2-.3-.4c0-.1-.1-.4-.1-.6,0-.5.1-.8.4-1.1s.7-.4,1.3-.4.7,0,1,.1c.3,0,.6.2.8.4l-.5.6c-.2-.1-.4-.2-.7-.3s-.4-.1-.6-.1c-.3,0-.5,0-.7.1s-.2.2-.2.5,0,.2.2.3.2.1.4.1c.2,0,.3,0,.5,0,.2,0,.4,0,.6,0,.2,0,.4,0,.5.2s.3.2.4.4c0,.2.2.4.2.7,0,.5-.2.8-.5,1.1-.3.2-.8.4-1.4.4h0Z"/>
    <path class="cls-1" d="M25.6,6"/>
    <path class="cls-1" d="M58.5,3.8"/>
  </g>
</svg>