<?xml version="1.0" encoding="UTF-8"?>
<svg id="Layer_1" data-name="Layer 1" xmlns="http://www.w3.org/2000/svg" viewBox="0 0 62.02 18.44">
  <defs>
    <style>
      .cls-1 {
        fill-rule: evenodd;
      }

      .cls-1, .cls-2, .cls-3 {
        stroke-width: 0px;
      }

      .cls-1, .cls-3 {
        fill: #fff;
      }

      .cls-2 {
        fill: #fbfeff;
      }
    </style>
  </defs>
  <path class="cls-1" d="M36.54,16.52h-3.3c-.06,0-.11-.05-.11-.11v-.59c0-.06.05-.11.11-.11h3.3v.82h0ZM36.47,13.28h-4.12l.34.89h3.74c.06,0,.11.05.11.11v.53h-3.34c-.63,0-1.14.51-1.14,1.14v.32c0,.63.51,1.14,1.14,1.14h4.41v-3c0-.63-.51-1.14-1.14-1.14h0Z"/>
  <path class="cls-1" d="M45.16,14.99c0,.05-.05.1-.11.1h-2.57v-2.08h2.57c.06,0,.11.04.11.1v1.87h0ZM45.16,12.21h-2.69v-.92h-1.17v4.62h3.86c.63,0,1.14-.46,1.14-1.02v-1.65c0-.56-.51-1.02-1.14-1.02v-.02Z"/>
  <path class="cls-1" d="M43.57,1.95h-7.94v5.67h1.56V3.35c0-.09.07-.16.16-.16h2.11c.09,0,.16.07.16.16v4.27h1.57V3.35c0-.09.07-.16.16-.16h2.08c.09,0,.16.07.16.16v4.27h1.57V3.52c0-.86-.7-1.57-1.56-1.57h-.03Z"/>
  <path class="cls-1" d="M60.57,3.07v4.28c0,.09-.07.16-.16.16h-3.75c-.09,0-.16-.07-.16-.16V3.07h-1.48v4.1c0,.86.7,1.57,1.56,1.57h3.88c.86,0,1.56-.7,1.56-1.57V3.07h-1.46,0Z"/>
  <path class="cls-1" d="M28.3,9.49c0-.09.07-.16.16-.16h4.51v1.12h-4.51c-.09,0-.16-.07-.16-.16v-.8ZM28.4,11.68h6.03v-4.11c0-.86-.7-1.56-1.56-1.56h-5.64l.46,1.22h5.12c.09,0,.16.07.16.16v.72h-4.57c-.86,0-1.56.7-1.56,1.57v.44c0,.86.7,1.57,1.56,1.57h0Z"/>
  <path class="cls-1" d="M52.22,7.46c0,.09-.07.16-.16.16h-3.51v-3.19h3.51c.09,0,.16.07.16.16v2.88h0ZM52.24,3.18h-3.68v-1.41h-1.6v7.08h5.28c.86,0,1.56-.7,1.56-1.57v-2.54c0-.86-.7-1.57-1.56-1.57h0Z"/>
  <path class="cls-1" d="M7.45,17.96l6.49.47.64-8.73-6.3-3-.82,11.25Z"/>
  <path class="cls-1" d="M7.47.56l.49,5.62,6.6,1.96-.72-8.14-6.38.56Z"/>
  <path class="cls-1" d="M.02.85v11.28l6.4-2.53V.85H.02Z"/>
  <path class="cls-1" d="M0,17.95l6.38.49.63-8.15L.43,12.33l-.43,5.62Z"/>
  <path class="cls-1" d="M17.29,2.39v1.53l1.6-.62v-1.53l-1.6.62Z"/>
  <path class="cls-1" d="M23.17,8.45l-3.62-.21.11-1.88,3.62.21c.21.01.41.09.56.22.21.18.34.46.33.77-.03.52-.47.91-.99.88ZM19.83,3.36l3.4.2c.1,0,.2.03.29.08.31.15.52.47.5.84,0,0,0,.12-.03.18-.07.28-.26.49-.52.58-.11.04-.23.07-.36.06l-3.36-.19.1-1.75h-.01ZM23.04,2.28l-3.13-.18-.07,1.26-1.63.53-.32,5.49,5.67.33h.03s.02,0,.03,0c1.14.05,2.11-.83,2.18-1.98.04-.65-.22-1.24-.66-1.65,0,0,.02-.02.03-.04.3-.35.5-.8.53-1.29.05-.94-.49-1.77-1.29-2.13-.37-.18-.79-.3-1.24-.33h-.11s0,0,0,0Z"/>
  <path class="cls-1" d="M23.22,12.53v5.12h4.39l-.37-.97h-2.81v-4.15h-1.21Z"/>
  <path class="cls-3" d="M18.86,17.28c-.3,0-.59-.03-.86-.09-.28-.06-.53-.14-.77-.26-.24-.11-.46-.26-.66-.42l.54-.82c.24.2.51.36.81.46s.61.16.95.16c.42,0,.74-.07.97-.22.23-.15.35-.36.35-.63h0c0-.21-.06-.37-.17-.48s-.27-.19-.46-.25c-.19-.05-.39-.1-.62-.13-.24-.04-.48-.08-.72-.14s-.47-.14-.67-.26-.37-.29-.49-.51c-.12-.22-.19-.52-.19-.88h0c0-.6.2-1.06.59-1.38s.95-.49,1.66-.49c.33,0,.67.05,1,.17.33.11.65.27.96.49l-.5.84c-.24-.17-.48-.31-.73-.39-.25-.09-.49-.13-.73-.13-.39,0-.7.07-.91.22-.22.14-.32.35-.32.61h0c0,.22.06.39.19.5.13.11.29.2.5.25.2.05.42.11.66.15.23.05.47.1.7.17.23.07.44.16.64.28s.34.29.46.51.17.5.17.84h0c0,.6-.2,1.05-.61,1.37-.41.32-.98.48-1.72.48l-.02-.02Z"/>
  <path class="cls-2" d="M49.18,17.62c-.39,0-.75-.06-1.07-.17-.32-.12-.61-.29-.86-.52l.52-.64c.24.18.48.32.72.41s.47.14.7.14c.35,0,.61-.05.78-.16s.26-.27.26-.48c0-.17-.06-.28-.17-.35-.12-.07-.27-.11-.45-.14-.19-.02-.39-.04-.6-.05-.18-.01-.36-.04-.54-.07s-.34-.08-.48-.16-.26-.2-.35-.35c-.09-.15-.13-.36-.13-.62,0-.47.14-.82.43-1.06s.72-.35,1.29-.35c.35,0,.67.05.97.14.3.09.58.24.84.43l-.53.64c-.22-.14-.44-.25-.66-.32s-.43-.11-.63-.11c-.3,0-.52.05-.67.15s-.22.25-.22.46c0,.13.05.23.15.29s.24.1.41.11c.17.02.35.03.54.05.19.01.37.03.56.06.19.03.37.09.53.17s.29.21.38.38c.1.17.15.4.15.69,0,.48-.15.83-.46,1.07-.31.24-.78.36-1.4.36h-.01Z"/>
</svg>