<?xml version="1.0" encoding="UTF-8"?>
<svg id="Layer_1" data-name="Layer 1" xmlns="http://www.w3.org/2000/svg" viewBox="0 0 229.6 192.27">
  <defs>
    <style>
      .cls-1 {
        fill: #00ae42;
        stroke-width: 0px;
      }
    </style>
  </defs>
  <path class="cls-1" d="M202.25,59.18c.18-.63-.48-.92-.26-1.53.21-.59-.76-.64-.73-1.33-.17-.04-.32-.09-.47-.09-.37-.01-.74,0-1.11,0-28.14,0-56.27-.01-84.41-.02-1.25,0-2.48-.15-3.65-.62-.33-.1-1.42-3.1-1.5-3.54.01-.22,1.46,1.84,1.57,1.77.23-.15-.37.67-.52.48-.11-.14-.25-.27-.39-.39-.94-.82-1.87-1.65-2.56-2.69-1.12-1.66-1.98-3.44-2.14-5.47-.23-2.88.65-5.36,2.75-7.38.06-.05.11-.13.18-.16.82-.38,1.44-1.06,2.28-1.42.81-.34,1.65-.58,2.51-.7.44-.07.89-.06,1.34-.06,7.64,0,15.27,0,22.91,0,27.66,0,55.32-.02,82.98-.02.63,0,1.27.04,1.89.12,1.69.23,3.08,1,4.22,2.29,1.08,1.21,1.86,2.55,2.23,4.13.36,1.53.31,3.04-.17,4.53-.18.55-.39,1.09-.61,1.63-1.38,3.35-2.76,6.69-4.14,10.03-1.41,3.42-2.81,6.84-4.22,10.26-1.46,3.54-2.93,7.08-4.39,10.62-1.59,3.86-3.18,7.72-4.77,11.57-1.18,2.86-2.36,5.71-3.54,8.57-1.37,3.32-2.74,6.64-4.11,9.96-1.12,2.71-2.25,5.42-3.36,8.13-1.68,4.08-3.36,8.15-5.04,12.23-.22.54-.46,1.07-.67,1.61-.39,1.03-.99,1.93-1.72,2.74-.33.37-.71.71-1.12,1-1.57,1.12-3.31,1.74-5.25,1.74-.98,0-1.96,0-2.93,0-3.78.03-7.55.06-11.33.08-1.11,0-2.22-.08-3.33-.08-8.43-.01-16.86-.02-25.28-.02-16.22,0-32.44,0-48.67,0-3.14,0-6.29,0-9.43.01-.77,0-1.53.05-2.3.08-1.22.06-2.43-.05-3.64-.18-.51-.06-1.02-.27-1.5-.48-.46-.2-.89-.47-1.31-.73-1.8-1.13-3-2.72-3.65-4.73-.59-1.83-1.13-3.68-1.69-5.53-.88-2.93-1.75-5.87-2.63-8.8-2.06-6.88-4.13-13.75-6.19-20.62-1.8-5.99-3.59-11.98-5.38-17.97-1.39-4.63-2.78-9.25-4.17-13.88-1.87-6.22-3.73-12.44-5.59-18.66-1.8-5.99-3.6-11.98-5.39-17.97-.43-1.44-.86-2.88-1.3-4.32-.05-.15-.1-.3-.16-.45-.07-.16-.19-.26-.36-.26-.26,0-.53-.01-.79-.01-7.9,0-17.27-2.56-25.17-2.55-.91,0-7-1.81-7.85-2.13-.22-.08,3.56-.52,4.78.52-.61-.72.72,1.33-.06.85-1.17-.71-3.22-.54-4.43-1.2-1.31-.72-2.49-1.6-3.56-2.63C1.31,13.86.29,11.9.06,9.63-.27,6.42.79,3.71,3.35,1.65,4.77.5,6.38,0,8.19,0c12.26.01,24.52.02,36.78,0,2.51,0,4.57.95,6.27,2.74.94.99,1.53,2.21,1.93,3.51,1.03,3.38,2.06,6.77,3.08,10.16,1.01,3.36,2.01,6.73,3.02,10.09.81,2.71,1.65,5.41,2.46,8.11.63,2.1,1.26,4.2,1.89,6.3.67,2.22,1.35,4.45,2.02,6.67.81,2.71,1.62,5.41,2.43,8.12.54,1.82,1.09,3.64,1.64,5.46.8,2.65,1.6,5.31,2.4,7.96.84,2.81,1.69,5.61,2.54,8.42,1.06,3.51,2.1,7.03,3.16,10.55.91,3.03,1.84,6.06,2.75,9.1.91,3.01,1.8,6.02,2.71,9.03.99,3.29,1.98,6.57,2.97,9.86.27.88.52,1.77.79,2.66.06.2.14.4.19.6.1.43.38.62.79.64.29.02.58.02.87.02,11.65,0,23.3,0,34.95,0,18.44,0,36.88,0,55.32,0,.4,0,.79,0,1.19-.02.16,0,.32-.05.37-.24.05-.17-.02-.38-.19-.48-.09-.06-.19-.1-.28-.14-.19-.09,2.16.7,1.97.61-3.53,4.86-3.38-1.46-3.06-2.16.33-.72.68-1.43,1.03-2.14.18-.38.36-.76.54-1.15.66-1.44,1.34-2.87,1.99-4.31.48-1.06.92-2.13,1.39-3.19.47-1.06.94-2.12,1.41-3.19.41-.94.82-1.89,1.23-2.83.46-1.06.88-2.15,1.41-3.19.75-1.49,1.33-3.05,1.98-4.58.42-1,.9-1.97,1.35-2.95.06-.12.11-.24.16-.36,1.19-2.88,2.39-5.76,3.58-8.64.68-1.63,1.36-3.27,2.03-4.9.66-1.61,1.32-3.23,1.96-4.85.66-1.64,1.3-3.29,1.95-4.94.33-.86.66-1.72.96-2.6.13-.37.22-.76.28-1.15.07-.44-.06-.65-.49-.76-.42-.11.93-.16.79-.53.28-.47-.64-1.1-.77-1.36-.13-.27.31-.12,0,0-.04.01.42-.74.34-.77ZM198.08,54.03s0-.09,0-.14c-.15-.04-.3-.09-.45-.11-.71-.07-1.42-.16-2.13-.18-2.24-.07-4.49-.16-6.73-.17-11.09-.03-22.19-.04-33.28-.07-.63,0-1.26-.06-1.9-.08-.18,0-.37-.01-.55,0-1.16.12-2.32.1-3.48.02-.58-.04-1.16.01-1.74.03-.24,0-.47.03-.71.03-1.71-.03-3.43-.08-5.14-.09-.79,0-1.58.06-2.37.06-1.66,0-3.32-.05-4.98-.06-1.43,0-2.85.03-4.28.02-1.21-.01-2.43-.06-3.64.05-.13.01-.26-.01-.4-.02-.4-.02-.79-.05-1.19-.06-.9,0-1.8,0-2.69,0-2.64,0-5.28,0-7.92,0-.45,0-.91,0-1.34-.09-.8-.18-1.59-.41-2.32-.8-.2-.11-.08,1.19-.39,1.06.09.16-.23-1.13-.18-1.09,1.27.96-4.23-5.53-2.62-5.48,1.03.03,92.67,7.21,93.7,7.2,2.3,0-76.39.75-74.1.88,1.13.07-.44-.9.7-.9,1.19,0,2.37,0,3.56,0,21.92,0,43.85,0,65.77,0,.26,0,.52,0,.79,0ZM6.48,17.31c.08.06,1.27-1.49,1.36-1.46.8.27-4.73-6.53-3.91-6.3.35.1,38.57,8.89,38.94,8.89,1.9.01-28.84-.07-26.94-.08,1.06,0,1.92-5.33,2.98-5.33,2.53.02,5.25,5.4,7.78,5.21.21-.02.43-.02.63.02.92.17,1.84-.05,2.76.07,1.02-.19,2.05-.1,3.08-.11,1.35-.02,2.69-.02,4.04-.02.4,0-25.51-.87-25.14-1.04.08-.04,26.46.69,26.47.61,0-.09-.08-.19-.15-.26-.05-.05-25.1-.33-25.17-.34-.65-.05,23.66,0,22.99.15-.22.05-.47.01-.71,0-.37-.02-.74-.08-1.1-.06-1,.03-2,.02-3,0-4.17-.04-8.34-.02-12.51-.02-2.06,0-4.12,0-6.18,0-2.05-.01-4.11.05-6.22.05Z"/>
  <path class="cls-1" d="M176.24,169.56c.07.74-2.13,0-1.53.48.53.42,3.59-5.32,4.31-5.46.52-.1.93-.21,1.46-.26.25-.02-1.17,2.67-1.27,2.91-.11.25-.26-2.16-.28-1.77.15-.05.26-.06.32-.11,1.06-1.01,2.3-1.77,3.54-2.53,1.35-.82,2.81-1.33,4.35-1.64.18-.04,2.25,1.82,2.45,1.84-.26.14-2.43-1.65-2.72-1.58-.25.06-.53.08-.66.37-.2-.08-.37-.05-.47.16-.22,0-.43,0-.64.01-.22.14-.52.16-.64.44-.14-.02-.25.02-.32.15-.15,0-.24.06-.3.19-.05,0-.11,0-.16,0,.05,0,.1-.01.15-.02.1-.06.2-.13.29-.19.11-.05.48-.26.59-.31.26-.08.3.06.39-.28.22.11.31-.36.52-.42.16-.05.43.29.59.24.75-.14,1.5-.32,2.25-.42,1.31-.18,2.63-.16,3.95-.02.92.1,1.82.32,2.71.57.38.11.77.17,1.16.25.42.09.78.28,1.12.56.43.35.89.65,1.35.97,2.06,1.41,3.73,3.19,4.93,5.38.9,1.63,1.52,3.36,1.78,5.22.56,4.04-.22,7.78-2.48,11.18-1.02,1.53-2.3,2.81-3.79,3.9-2.05,1.5-4.36,2.35-6.85,2.72-.55.08-1.11.09-1.66.11-2.2.06-4.3-.37-6.33-1.2-1.79-.73-3.35-1.81-4.72-3.14-1.45-1.41-2.63-3.02-3.48-4.87-.33-.72-.64-1.45-.99-2.16-.33-.66-.66-1.32-1.06-1.94-.47-.73.53-3.54.02-4.25-.25-.34.32-1.35.09-1.7-.07-.11,2.26-3.61.26-.6-.68-.55-.38.1-.51-.68-.3-1.79,2.31-1.97,2.72-3.74.48-2.08-.07-.4,1.19-2.13"/>
  <path class="cls-1" d="M63.04,163.99c-.14.14-.28.32-.13.58.3-.09.52-.29.73-.48.86-.72,1.82-1.26,2.86-1.67.59-.23,1.18-.45,1.79-.65.24-.08.51-.08.77-.13.03,0,.05,0,.07-.02.02,0,.03-.02.05-.03-.04.02-.09.04-.13.05.15-.05.3-.16.44-.14.46.06.89-.05,1.33-.11,2.77-.39,5.49-.16,8.09.9,1.75.71,3.37,1.66,4.73,2.98,1.24,1.2,2.26,2.58,3.07,4.11.91,1.72,1.51,3.56,1.69,5.49.33,3.51-.31,6.83-2.13,9.89-.99,1.66-2.25,3.06-3.75,4.25-2.09,1.67-4.5,2.64-7.12,3.06-1.93.31-3.84.2-5.73-.28-1.28-.33-2.53-.76-3.69-1.41-2.32-1.31-4.2-3.08-5.64-5.33-1.27-1.99-2.05-4.16-2.36-6.49-.13-.96-.13-1.95-.1-2.92.09-3.23,1.2-6.14,2.9-8.84"/>
</svg>